<svg xmlns="http://www.w3.org/2000/svg" preserveAspectRatio="xMinYMin meet" viewBox="0 0 184.5 23">
  <g fill="#fff">
    <path d="M34.1,18.49l1.84-2.2a8.11,8.11,0,0,0,5.52,2.28c1.89,0,3.1-.9,3.1-2.2v0c0-1.25-.71-1.93-3.95-2.68-3.72-.9-5.82-2-5.82-5.23v0c0-3,2.5-5.07,6-5.07a9.7,9.7,0,0,1,6.35,2.2L45.45,7.82A8,8,0,0,0,40.71,6c-1.8,0-2.86.93-2.86,2.07v0c0,1.35.8,2,4.17,2.74,3.71.9,5.6,2.23,5.6,5.12v0c0,3.27-2.57,5.23-6.26,5.23a10.73,10.73,0,0,1-7.27-2.79m22.81-5.86c2.33,0,3.77-1.3,3.77-3.13v0c0-2.05-1.48-3.13-3.77-3.13H53.33v6.3Zm-6.64-9.1h6.9c4.11,0,6.64,2.33,6.64,5.86v0c0,3.93-3.14,6-7,6H53.33V21H50.25V3.53Zm16.19,0h13V6.28h-9.9v4.56h8.78v2.74H69.53v4.7h10V21H66.45Zm16.25,0h13V6.28h-9.9v4.56h8.76v2.74H85.79v4.7h10V21H82.71V3.53ZM102,6.34v11.9h3.45a5.71,5.71,0,0,0,6.08-5.9v0a5.75,5.75,0,0,0-6.08-6H102ZM99,3.53h6.53c5.5,0,9.3,3.77,9.3,8.7v0c0,4.93-3.8,8.74-9.3,8.74H99V3.53ZM122,6.39h-5.55V3.53h14.2V6.39h-5.55V21H122V6.39Zm11.9-2.86h13V6.28H137v4.56h8.78v2.74H137v4.7h10V21H133.95Zm15.56,15,1.84-2.2a8.11,8.11,0,0,0,5.52,2.28c1.89,0,3.1-.9,3.1-2.2v0c0-1.25-.71-1.93-3.95-2.68-3.72-.9-5.82-2-5.82-5.23v0c0-3,2.5-5.07,6-5.07a9.7,9.7,0,0,1,6.35,2.2l-1.65,2.33A8,8,0,0,0,156.12,6c-1.8,0-2.86.93-2.86,2.07v0c0,1.35.8,2,4.17,2.74,3.71.9,5.6,2.23,5.6,5.12v0c0,3.27-2.57,5.23-6.26,5.23a10.73,10.73,0,0,1-7.27-2.79m21.11-12.1h-5.53V3.53h14.2V6.39h-5.55V21h-3.11V6.39Z"/>
    <path d="M22,22A12.3,12.3,0,1,0,4.61,22l1.75-1.75a9.83,9.83,0,1,1,13.91,0L22,22Z"/>
    <path d="M13,15.78l-2.18-2.18,7-6.11,1.3,1.3Z"/>
    <path d="M182.14,4.93c.21,0,.35-.11.35-.29s-.13-.27-.35-.27h-.43v.56Zm-.72-.83h.75a.69.69,0,0,1,.48.16.53.53,0,0,1-.26.88l.45.64h-.35l-.42-.59h-.37v.59h-.29Z"/>
    <path d="M182,3.52A1.44,1.44,0,1,0,183.49,5,1.44,1.44,0,0,0,182,3.52m0,.19a1.24,1.24,0,1,1-1.24,1.24A1.24,1.24,0,0,1,182,3.71"/>
  </g>
</svg>
